<svg width="20" height="20" viewBox="0 0 20 20" fill="none" xmlns="http://www.w3.org/2000/svg">
<g clip-path="url(#clip0_7_2676)">
<path d="M13.3278 17.4927V15.8267C13.3278 14.943 12.9768 14.0955 12.3519 13.4707C11.7271 12.8458 10.8796 12.4948 9.99588 12.4948H4.99796C4.11427 12.4948 3.26678 12.8458 2.64192 13.4707C2.01706 14.0955 1.66602 14.943 1.66602 15.8267V17.4927" stroke="#1E3A5F" stroke-width="1.66597" stroke-linecap="round" stroke-linejoin="round"/>
<path d="M7.49698 9.16279C9.33717 9.16279 10.8289 7.67103 10.8289 5.83085C10.8289 3.99066 9.33717 2.4989 7.49698 2.4989C5.6568 2.4989 4.16504 3.99066 4.16504 5.83085C4.16504 7.67103 5.6568 9.16279 7.49698 9.16279Z" stroke="#1E3A5F" stroke-width="1.66597" stroke-linecap="round" stroke-linejoin="round"/>
<path d="M15.8271 6.66394V11.6619" stroke="#1E3A5F" stroke-width="1.66597" stroke-linecap="round" stroke-linejoin="round"/>
<path d="M18.326 9.16284H13.3281" stroke="#1E3A5F" stroke-width="1.66597" stroke-linecap="round" stroke-linejoin="round"/>
</g>
<defs>
<clipPath id="clip0_7_2676">
<rect width="19.9917" height="19.9917" fill="white"/>
</clipPath>
</defs>
</svg>
