<svg width="20" height="20" viewBox="0 0 20 20" fill="none" xmlns="http://www.w3.org/2000/svg">
<path d="M14.2024 16.893C13.3861 17.6843 12.4948 17.5594 11.6368 17.1845C10.7289 16.8013 9.89588 16.7847 8.93794 17.1845C7.73844 17.701 7.10537 17.551 6.389 16.893C2.32403 12.703 2.92378 6.32237 7.53853 6.08913C8.66306 6.14744 9.44606 6.70554 10.1041 6.75552C11.087 6.55561 12.0283 5.98085 13.0779 6.05581C14.3357 6.15577 15.2853 6.65556 15.91 7.55519C13.3111 9.11287 13.9275 12.5364 16.3099 13.4944C15.8351 14.7439 15.2187 15.985 14.1941 16.9013L14.2024 16.893ZM10.0208 6.03915C9.89588 4.18159 11.4036 2.6489 13.1362 2.49896C13.3778 4.64807 11.187 6.2474 10.0208 6.03915Z" fill="#1E3A5F"/>
</svg>
