<svg width="20" height="20" viewBox="0 0 20 20" fill="none" xmlns="http://www.w3.org/2000/svg">
<mask id="path-1-inside-1_71_5523" fill="white">
<path d="M0 9.99584C0 4.47529 4.47529 0 9.99584 0C15.5164 0 19.9917 4.47529 19.9917 9.99584C19.9917 15.5164 15.5164 19.9917 9.99584 19.9917C4.47529 19.9917 0 15.5164 0 9.99584Z"/>
</mask>
<path d="M0 9.99584C0 4.47529 4.47529 0 9.99584 0C15.5164 0 19.9917 4.47529 19.9917 9.99584C19.9917 15.5164 15.5164 19.9917 9.99584 19.9917C4.47529 19.9917 0 15.5164 0 9.99584Z" fill="#2B7FFF"/>
<path d="M0 9.99584M19.9917 9.99584M19.9917 9.99584M0 9.99584M9.99584 0M19.9917 9.99584M9.99584 19.9917M0 9.99584M9.99584 19.9917V18.8839C5.08709 18.8839 1.10776 14.9046 1.10776 9.99584H0H-1.10776C-1.10776 16.1282 3.86349 21.0994 9.99584 21.0994V19.9917ZM19.9917 9.99584H18.8839C18.8839 14.9046 14.9046 18.8839 9.99584 18.8839V19.9917V21.0994C16.1282 21.0994 21.0994 16.1282 21.0994 9.99584H19.9917ZM9.99584 0V1.10776C14.9046 1.10776 18.8839 5.08709 18.8839 9.99584H19.9917H21.0994C21.0994 3.86349 16.1282 -1.10776 9.99584 -1.10776V0ZM9.99584 0V-1.10776C3.86349 -1.10776 -1.10776 3.86349 -1.10776 9.99584H0H1.10776C1.10776 5.08709 5.08709 1.10776 9.99584 1.10776V0Z" fill="white" mask="url(#path-1-inside-1_71_5523)"/>
<path d="M13.9942 6.99713L8.49652 12.4948L5.99756 9.99588" stroke="white" stroke-width="0.999584" stroke-linecap="round" stroke-linejoin="round"/>
</svg>
