<svg width="20" height="20" viewBox="0 0 20 20" fill="none" xmlns="http://www.w3.org/2000/svg">
<g clip-path="url(#clip0_7_3651)">
<path d="M18.322 14.0914V16.5898C18.323 16.8218 18.2755 17.0514 18.1826 17.2639C18.0896 17.4764 17.9534 17.6672 17.7824 17.824C17.6115 17.9808 17.4098 18.1001 17.19 18.1744C16.9703 18.2488 16.7375 18.2764 16.5065 18.2555C13.9438 17.977 11.4821 17.1013 9.31924 15.6987C7.307 14.4201 5.60097 12.714 4.32231 10.7018C2.91482 8.52912 2.03892 6.05547 1.76555 3.48122C1.74474 3.25092 1.77211 3.0188 1.84592 2.79966C1.91973 2.58051 2.03836 2.37914 2.19426 2.20835C2.35016 2.03757 2.53991 1.90112 2.75144 1.80768C2.96296 1.71425 3.19162 1.66589 3.42286 1.66567H5.92133C6.3255 1.66169 6.71733 1.80482 7.02379 2.06837C7.33024 2.33192 7.53041 2.69791 7.58697 3.09812C7.69243 3.89769 7.888 4.68275 8.16995 5.43835C8.282 5.73644 8.30625 6.0604 8.23983 6.37184C8.1734 6.68329 8.01909 6.96917 7.79518 7.19561L6.73749 8.25329C7.92306 10.3383 9.64942 12.0647 11.7344 13.2502L12.7921 12.1925C13.0185 11.9686 13.3044 11.8143 13.6159 11.7479C13.9273 11.6815 14.2513 11.7057 14.5494 11.8178C15.305 12.0997 16.09 12.2953 16.8896 12.4007C17.2941 12.4578 17.6636 12.6616 17.9277 12.9733C18.1918 13.285 18.3322 13.6829 18.322 14.0914Z" stroke="#1E3A5F" stroke-width="1.66564" stroke-linecap="round" stroke-linejoin="round"/>
</g>
<defs>
<clipPath id="clip0_7_3651">
<rect width="19.9877" height="19.9877" fill="white"/>
</clipPath>
</defs>
</svg>
