<svg width="32" height="32" viewBox="0 0 32 32" fill="none" xmlns="http://www.w3.org/2000/svg">
<path d="M19.3253 5.33112H12.6614L9.32942 9.32945H5.33108C4.62413 9.32945 3.94614 9.61028 3.44625 10.1102C2.94636 10.6101 2.66553 11.2881 2.66553 11.995V23.99C2.66553 24.697 2.94636 25.375 3.44625 25.8748C3.94614 26.3747 4.62413 26.6556 5.33108 26.6556H26.6555C27.3625 26.6556 28.0405 26.3747 28.5404 25.8748C29.0403 25.375 29.3211 24.697 29.3211 23.99V11.995C29.3211 11.2881 29.0403 10.6101 28.5404 10.1102C28.0405 9.61028 27.3625 9.32945 26.6555 9.32945H22.6572L19.3253 5.33112Z" stroke="#6B7280" stroke-width="2.66556" stroke-linecap="round" stroke-linejoin="round"/>
<path d="M15.9933 21.3245C18.2015 21.3245 19.9917 19.5343 19.9917 17.3261C19.9917 15.1179 18.2015 13.3278 15.9933 13.3278C13.7851 13.3278 11.995 15.1179 11.995 17.3261C11.995 19.5343 13.7851 21.3245 15.9933 21.3245Z" stroke="#6B7280" stroke-width="2.66556" stroke-linecap="round" stroke-linejoin="round"/>
</svg>
