<svg width="20" height="20" viewBox="0 0 20 20" fill="none" xmlns="http://www.w3.org/2000/svg">
<g clip-path="url(#clip0_7_3323)">
<path d="M18.1567 8.32819C18.5371 10.1948 18.266 12.1354 17.3887 13.8263C16.5115 15.5172 15.081 16.8563 13.3359 17.6202C11.5909 18.3842 9.63664 18.5267 7.79917 18.0242C5.96169 17.5217 4.35203 16.4044 3.23862 14.8587C2.1252 13.313 1.57534 11.4323 1.68073 9.53028C1.78612 7.62823 2.54038 5.81981 3.81774 4.40658C5.0951 2.99335 6.81834 2.06073 8.70008 1.76427C10.5818 1.4678 12.5083 1.8254 14.1583 2.77744" stroke="#00A63E" stroke-width="1.66564" stroke-linecap="round" stroke-linejoin="round"/>
<path d="M7.49512 9.16105L9.99358 11.6595L18.3218 3.3313" stroke="#00A63E" stroke-width="1.66564" stroke-linecap="round" stroke-linejoin="round"/>
</g>
<defs>
<clipPath id="clip0_7_3323">
<rect width="19.9877" height="19.9877" fill="white"/>
</clipPath>
</defs>
</svg>
