<svg width="20" height="20" viewBox="0 0 20 20" fill="none" xmlns="http://www.w3.org/2000/svg">
<path d="M12.4949 1.66602H4.998C4.55616 1.66602 4.13241 1.84154 3.81998 2.15397C3.50755 2.4664 3.33203 2.89014 3.33203 3.33199V16.6598C3.33203 17.1016 3.50755 17.5254 3.81998 17.8378C4.13241 18.1502 4.55616 18.3257 4.998 18.3257H14.9938C15.4357 18.3257 15.8594 18.1502 16.1719 17.8378C16.4843 17.5254 16.6598 17.1016 16.6598 16.6598V5.83095L12.4949 1.66602Z" stroke="#1E3A5F" stroke-width="1.66597" stroke-linecap="round" stroke-linejoin="round"/>
<path d="M11.6621 1.66602V4.99796C11.6621 5.4398 11.8376 5.86355 12.1501 6.17598C12.4625 6.48841 12.8862 6.66393 13.3281 6.66393H16.66" stroke="#1E3A5F" stroke-width="1.66597" stroke-linecap="round" stroke-linejoin="round"/>
<path d="M8.33004 7.49683H6.66406" stroke="#1E3A5F" stroke-width="1.66597" stroke-linecap="round" stroke-linejoin="round"/>
<path d="M13.328 10.8289H6.66406" stroke="#1E3A5F" stroke-width="1.66597" stroke-linecap="round" stroke-linejoin="round"/>
<path d="M13.328 14.1608H6.66406" stroke="#1E3A5F" stroke-width="1.66597" stroke-linecap="round" stroke-linejoin="round"/>
</svg>
