<svg width="20" height="20" viewBox="0 0 20 20" fill="none" xmlns="http://www.w3.org/2000/svg">
<path d="M9.9959 2.49896H4.165C3.72315 2.49896 3.29941 2.67448 2.98698 2.98691C2.67454 3.29934 2.49902 3.72309 2.49902 4.16494V15.8267C2.49902 16.2686 2.67454 16.6923 2.98698 17.0048C3.29941 17.3172 3.72315 17.4927 4.165 17.4927H15.8268C16.2686 17.4927 16.6924 17.3172 17.0048 17.0048C17.3173 16.6923 17.4928 16.2686 17.4928 15.8267V9.99584" stroke="white" stroke-width="1.66597" stroke-linecap="round" stroke-linejoin="round"/>
<path d="M15.3057 2.18659C15.6371 1.85521 16.0866 1.66904 16.5552 1.66904C17.0238 1.66904 17.4733 1.85521 17.8047 2.18659C18.1361 2.51797 18.3222 2.96742 18.3222 3.43607C18.3222 3.90471 18.1361 4.35416 17.8047 4.68555L10.297 12.1941C10.0992 12.3917 9.85483 12.5364 9.58644 12.6147L7.19327 13.3145C7.12159 13.3354 7.04561 13.3366 6.97328 13.3181C6.90096 13.2996 6.83494 13.2619 6.78214 13.2091C6.72935 13.1563 6.69172 13.0903 6.67319 13.018C6.65466 12.9457 6.65591 12.8697 6.67682 12.798L7.37652 10.4048C7.45526 10.1367 7.60021 9.89259 7.79802 9.69513L15.3057 2.18659Z" stroke="white" stroke-width="1.66597" stroke-linecap="round" stroke-linejoin="round"/>
</svg>
