<svg width="24" height="24" viewBox="0 0 24 24" fill="none" xmlns="http://www.w3.org/2000/svg">
<path d="M9.99582 19.9917C9.99573 20.1774 10.0474 20.3595 10.145 20.5176C10.2427 20.6756 10.3824 20.8033 10.5486 20.8863L12.5478 21.8859C12.7002 21.9621 12.8696 21.998 13.0398 21.9903C13.21 21.9826 13.3755 21.9315 13.5204 21.8418C13.6653 21.7522 13.7849 21.627 13.8678 21.4781C13.9507 21.3293 13.9942 21.1617 13.9942 20.9913V13.9942C13.9944 13.4988 14.1785 13.0211 14.5109 12.6537L21.7309 4.66805C21.8603 4.52467 21.9454 4.34687 21.9759 4.15615C22.0064 3.96543 21.981 3.76996 21.9028 3.59338C21.8245 3.41679 21.6968 3.26666 21.535 3.16113C21.3733 3.05561 21.1844 2.9992 20.9912 2.99875H2.99874C2.80542 2.99882 2.61628 3.05494 2.45421 3.16032C2.29215 3.26569 2.16411 3.4158 2.08562 3.59246C2.00713 3.76912 1.98155 3.96475 2.01197 4.15566C2.0424 4.34656 2.12752 4.52455 2.25704 4.66805L9.47904 12.6537C9.81143 13.0211 9.9956 13.4988 9.99582 13.9942V19.9917Z" stroke="white" stroke-width="1.99917" stroke-linecap="round" stroke-linejoin="round"/>
</svg>
