<svg width="20" height="20" viewBox="0 0 20 20" fill="none" xmlns="http://www.w3.org/2000/svg">
<g clip-path="url(#clip0_5_65)">
<path d="M18.7922 10.2041C18.7922 9.55432 18.7339 8.92958 18.6256 8.32983H9.99585V11.8784H14.9271C14.7106 13.0195 14.0608 13.9858 13.0862 14.6355V16.9429H16.06C17.7926 15.3436 18.7922 12.9946 18.7922 10.2041Z" fill="#4285F4"/>
<path d="M9.99584 19.1587C12.4698 19.1587 14.544 18.3424 16.06 16.943L13.0862 14.6356C12.2699 15.1854 11.2287 15.5185 9.99584 15.5185C7.6135 15.5185 5.58935 13.9109 4.86465 11.7451H1.81592V14.1108C3.32362 17.1012 6.414 19.1587 9.99584 19.1587Z" fill="#34A853"/>
<path d="M4.86466 11.7368C4.6814 11.187 4.57312 10.6039 4.57312 9.99584C4.57312 9.38776 4.6814 8.80467 4.86466 8.2549V5.88922H1.81593C1.19119 7.12204 0.833008 8.51313 0.833008 9.99584C0.833008 11.4786 1.19119 12.8696 1.81593 14.1025L4.18994 12.2532L4.86466 11.7368Z" fill="#FBBC05"/>
<path d="M9.99584 4.48149C11.3453 4.48149 12.5448 4.94796 13.5027 5.84759L16.1266 3.22368C14.5356 1.74096 12.4698 0.833008 9.99584 0.833008C6.414 0.833008 3.32362 2.89048 1.81592 5.88924L4.86465 8.25492C5.58935 6.08915 7.6135 4.48149 9.99584 4.48149Z" fill="#EA4335"/>
</g>
<defs>
<clipPath id="clip0_5_65">
<rect width="19.9917" height="19.9917" fill="white"/>
</clipPath>
</defs>
</svg>
