<svg width="24" height="24" viewBox="0 0 24 24" fill="none" xmlns="http://www.w3.org/2000/svg">
<path d="M15.9934 20.9913V18.9921C15.9934 17.9317 15.5722 16.9147 14.8224 16.1649C14.0725 15.415 13.0555 14.9938 11.9951 14.9938H5.9976C4.93718 14.9938 3.92019 15.415 3.17035 16.1649C2.42052 16.9147 1.99927 17.9317 1.99927 18.9921V20.9913" stroke="#6B7280" stroke-width="1.99917" stroke-linecap="round" stroke-linejoin="round"/>
<path d="M8.99614 10.9954C11.2044 10.9954 12.9945 9.20533 12.9945 6.99711C12.9945 4.78889 11.2044 2.99878 8.99614 2.99878C6.78792 2.99878 4.9978 4.78889 4.9978 6.99711C4.9978 9.20533 6.78792 10.9954 8.99614 10.9954Z" stroke="#6B7280" stroke-width="1.99917" stroke-linecap="round" stroke-linejoin="round"/>
<path d="M21.9909 20.9912V18.992C21.9903 18.1061 21.6954 17.2455 21.1527 16.5454C20.6099 15.8452 19.85 15.3451 18.9922 15.1237" stroke="#6B7280" stroke-width="1.99917" stroke-linecap="round" stroke-linejoin="round"/>
<path d="M15.9934 3.12866C16.8535 3.34887 17.6158 3.84906 18.1601 4.55038C18.7045 5.2517 19 6.11425 19 7.00205C19 7.88985 18.7045 8.7524 18.1601 9.45372C17.6158 10.155 16.8535 10.6552 15.9934 10.8754" stroke="#6B7280" stroke-width="1.99917" stroke-linecap="round" stroke-linejoin="round"/>
</svg>
