<svg width="24" height="24" viewBox="0 0 24 24" fill="none" xmlns="http://www.w3.org/2000/svg">
<path d="M14.9938 20.9912V12.9946C14.9938 12.7295 14.8885 12.4752 14.7011 12.2878C14.5136 12.1003 14.2594 11.995 13.9943 11.995H9.99592C9.73082 11.995 9.47657 12.1003 9.28911 12.2878C9.10165 12.4752 8.99634 12.7295 8.99634 12.9946V20.9912" stroke="#1E3A5F" stroke-width="1.99917" stroke-linecap="round" stroke-linejoin="round"/>
<path d="M2.99878 9.99578C2.99871 9.70497 3.06209 9.41765 3.18449 9.15385C3.30689 8.89005 3.48537 8.65614 3.70748 8.46842L10.7046 2.47192C11.0654 2.16695 11.5226 1.99963 11.995 1.99963C12.4675 1.99963 12.9247 2.16695 13.2855 2.47192L20.2826 8.46842C20.5047 8.65614 20.6832 8.89005 20.8056 9.15385C20.928 9.41765 20.9914 9.70497 20.9913 9.99578V18.992C20.9913 19.5222 20.7807 20.0307 20.4057 20.4057C20.0308 20.7806 19.5223 20.9912 18.9921 20.9912H4.99795C4.46773 20.9912 3.95924 20.7806 3.58432 20.4057C3.20941 20.0307 2.99878 19.5222 2.99878 18.992V9.99578Z" stroke="#1E3A5F" stroke-width="1.99917" stroke-linecap="round" stroke-linejoin="round"/>
</svg>
