<svg width="24" height="24" viewBox="0 0 24 24" fill="none" xmlns="http://www.w3.org/2000/svg">
<path d="M18.9919 2.99875H4.9977C3.89359 2.99875 2.99854 3.89381 2.99854 4.99792V18.9921C2.99854 20.0962 3.89359 20.9913 4.9977 20.9913H18.9919C20.096 20.9913 20.991 20.0962 20.991 18.9921V4.99792C20.991 3.89381 20.096 2.99875 18.9919 2.99875Z" stroke="#6B7280" stroke-width="1.99917" stroke-linecap="round" stroke-linejoin="round"/>
<path d="M8.99624 10.9954C10.1003 10.9954 10.9954 10.1003 10.9954 8.99624C10.9954 7.89213 10.1003 6.99707 8.99624 6.99707C7.89213 6.99707 6.99707 7.89213 6.99707 8.99624C6.99707 10.1003 7.89213 10.9954 8.99624 10.9954Z" stroke="#6B7280" stroke-width="1.99917" stroke-linecap="round" stroke-linejoin="round"/>
<path d="M20.9913 14.9937L17.9066 11.909C17.5317 11.5342 17.0233 11.3237 16.4932 11.3237C15.9631 11.3237 15.4547 11.5342 15.0798 11.909L5.99756 20.9912" stroke="#6B7280" stroke-width="1.99917" stroke-linecap="round" stroke-linejoin="round"/>
</svg>
