<svg width="24" height="24" viewBox="0 0 24 24" fill="none" xmlns="http://www.w3.org/2000/svg">
<path d="M18.9914 10.9948H4.99807C3.89403 10.9948 2.99902 11.8898 2.99902 12.9938V19.9905C2.99902 21.0945 3.89403 21.9895 4.99807 21.9895H18.9914C20.0954 21.9895 20.9904 21.0945 20.9904 19.9905V12.9938C20.9904 11.8898 20.0954 10.9948 18.9914 10.9948Z" stroke="#1E3A5F" stroke-width="1.99905" stroke-linecap="round" stroke-linejoin="round"/>
<path d="M6.99707 10.9947V6.99664C6.99707 5.67119 7.5236 4.40002 8.46084 3.46279C9.39807 2.52556 10.6692 1.99902 11.9947 1.99902C13.3201 1.99902 14.5913 2.52556 15.5285 3.46279C16.4658 4.40002 16.9923 5.67119 16.9923 6.99664V10.9947" stroke="#1E3A5F" stroke-width="1.99905" stroke-linecap="round" stroke-linejoin="round"/>
</svg>
