<svg width="18" height="20" viewBox="0 0 18 20" fill="none" xmlns="http://www.w3.org/2000/svg">
<path d="M13.5518 9.28058H3.56617C2.77832 9.28058 2.13965 9.91925 2.13965 10.7071V15.6999C2.13965 16.4878 2.77832 17.1265 3.56617 17.1265H13.5518C14.3397 17.1265 14.9784 16.4878 14.9784 15.6999V10.7071C14.9784 9.91925 14.3397 9.28058 13.5518 9.28058Z" stroke="#556B2F" stroke-width="1.42652" stroke-linecap="round" stroke-linejoin="round"/>
<path d="M4.99316 9.28062V6.42757C4.99316 5.48173 5.3689 4.57463 6.03771 3.90581C6.70652 3.237 7.61363 2.86127 8.55947 2.86127C9.50532 2.86127 10.4124 3.237 11.0812 3.90581C11.75 4.57463 12.1258 5.48173 12.1258 6.42757V9.28062" stroke="#556B2F" stroke-width="1.42652" stroke-linecap="round" stroke-linejoin="round"/>
</svg>
