<svg width="24" height="24" viewBox="0 0 24 24" fill="none" xmlns="http://www.w3.org/2000/svg">
<path d="M10.2637 20.9912C10.4391 21.2951 10.6915 21.5474 10.9954 21.7229C11.2993 21.8983 11.644 21.9907 11.995 21.9907C12.3459 21.9907 12.6906 21.8983 12.9945 21.7229C13.2984 21.5474 13.5508 21.2951 13.7262 20.9912" stroke="#6B7280" stroke-width="1.99917" stroke-linecap="round" stroke-linejoin="round"/>
<path d="M3.26067 15.3196C3.13009 15.4627 3.04392 15.6407 3.01263 15.8319C2.98135 16.0231 3.0063 16.2193 3.08445 16.3965C3.16261 16.5738 3.2906 16.7246 3.45285 16.8304C3.6151 16.9363 3.80462 16.9928 3.99837 16.9929H19.9917C20.1854 16.993 20.375 16.9367 20.5373 16.8311C20.6997 16.7254 20.8278 16.5748 20.9062 16.3977C20.9846 16.2205 21.0098 16.0244 20.9787 15.8332C20.9477 15.642 20.8618 15.4639 20.7314 15.3206C19.4019 13.9502 17.9925 12.4938 17.9925 7.99665C17.9925 6.40601 17.3607 4.88052 16.2359 3.75577C15.1112 2.63102 13.5857 1.99915 11.995 1.99915C10.4044 1.99915 8.87891 2.63102 7.75416 3.75577C6.62941 4.88052 5.99753 6.40601 5.99753 7.99665C5.99753 12.4938 4.58712 13.9502 3.26067 15.3196Z" stroke="#6B7280" stroke-width="1.99917" stroke-linecap="round" stroke-linejoin="round"/>
</svg>
