<svg width="20" height="20" viewBox="0 0 20 20" fill="none" xmlns="http://www.w3.org/2000/svg">
<g clip-path="url(#clip0_7_2653)">
<path d="M9.6309 2.7205C9.66685 2.6552 9.71967 2.60074 9.78385 2.56282C9.84802 2.52489 9.9212 2.50488 9.99575 2.50488C10.0703 2.50488 10.1435 2.52489 10.2076 2.56282C10.2718 2.60074 10.3246 2.6552 10.3606 2.7205L12.8196 7.38855C12.8782 7.49664 12.9601 7.59041 13.0592 7.66312C13.1584 7.73583 13.2724 7.78568 13.3932 7.80909C13.5139 7.8325 13.6383 7.8289 13.7575 7.79853C13.8766 7.76816 13.9876 7.71179 14.0824 7.63345L17.6451 4.58139C17.7134 4.52576 17.7977 4.49327 17.8858 4.48859C17.9738 4.48392 18.061 4.50729 18.1349 4.55535C18.2088 4.60342 18.2656 4.67369 18.297 4.75606C18.3284 4.83842 18.3329 4.92864 18.3098 5.01371L15.9491 13.5485C15.9009 13.7231 15.7971 13.8773 15.6534 13.9876C15.5097 14.098 15.3339 14.1585 15.1528 14.1599H4.83956C4.65825 14.1586 4.4823 14.0982 4.33843 13.9879C4.19456 13.8775 4.09062 13.7233 4.04239 13.5485L1.68254 5.01454C1.65943 4.92947 1.6639 4.83926 1.69532 4.75689C1.72674 4.67452 1.78348 4.60425 1.85739 4.55619C1.93129 4.50812 2.01853 4.48475 2.10656 4.48943C2.1946 4.49411 2.27887 4.5266 2.34726 4.58222L5.90911 7.63428C6.00391 7.71262 6.11487 7.76899 6.23403 7.79936C6.35319 7.82973 6.4776 7.83334 6.59833 7.80993C6.71905 7.78651 6.83309 7.73666 6.93226 7.66395C7.03144 7.59124 7.11328 7.49748 7.17192 7.38939L9.6309 2.7205Z" stroke="#D4A574" stroke-width="1.66597" stroke-linecap="round" stroke-linejoin="round"/>
<path d="M4.16504 17.4927H15.8268" stroke="#D4A574" stroke-width="1.66597" stroke-linecap="round" stroke-linejoin="round"/>
</g>
<defs>
<clipPath id="clip0_7_2653">
<rect width="19.9917" height="19.9917" fill="white"/>
</clipPath>
</defs>
</svg>
