<svg width="24" height="24" viewBox="0 0 24 24" fill="none" xmlns="http://www.w3.org/2000/svg">
<path d="M19.9904 12.9938C19.9904 17.9914 16.4921 20.4902 12.3341 21.9395C12.1163 22.0133 11.8798 22.0098 11.6644 21.9295C7.49638 20.4902 3.99805 17.9914 3.99805 12.9938V5.99714C3.99805 5.73205 4.10335 5.47781 4.2908 5.29037C4.47825 5.10292 4.73248 4.99761 4.99757 4.99761C6.99661 4.99761 9.49542 3.79819 11.2346 2.27891C11.4463 2.098 11.7157 1.9986 11.9942 1.9986C12.2727 1.9986 12.5421 2.098 12.7539 2.27891C14.503 3.80818 16.9918 4.99761 18.9909 4.99761C19.256 4.99761 19.5102 5.10292 19.6977 5.29037C19.8851 5.47781 19.9904 5.73205 19.9904 5.99714V12.9938Z" stroke="#1E3A5F" stroke-width="1.99905" stroke-linecap="round" stroke-linejoin="round"/>
</svg>
