<svg width="10" height="16" viewBox="0 0 10 16" fill="none" xmlns="http://www.w3.org/2000/svg">
<g clip-path="url(#clip0_71_5572)">
<path d="M6.99729 7.60793V5.66429C6.99729 5.4581 6.91538 5.26035 6.76958 5.11455C6.62378 4.96875 6.42603 4.88684 6.21984 4.88684C6.01364 4.88684 5.81589 4.96875 5.67009 5.11455C5.52429 5.26035 5.44238 5.4581 5.44238 5.66429" stroke="white" stroke-width="0.777454" stroke-linecap="round" stroke-linejoin="round"/>
<path d="M5.44211 7.21919V4.88683C5.44211 4.68064 5.3602 4.48289 5.2144 4.33709C5.0686 4.19129 4.87085 4.10938 4.66466 4.10938C4.45847 4.10938 4.26072 4.19129 4.11492 4.33709C3.96912 4.48289 3.88721 4.68064 3.88721 4.88683V5.66428" stroke="white" stroke-width="0.777454" stroke-linecap="round" stroke-linejoin="round"/>
<path d="M3.88743 7.41357V5.66429C3.88743 5.4581 3.80552 5.26035 3.65972 5.11455C3.51392 4.96875 3.31617 4.88684 3.10997 4.88684C2.90378 4.88684 2.70603 4.96875 2.56023 5.11455C2.41443 5.26035 2.33252 5.4581 2.33252 5.66429V8.77411" stroke="white" stroke-width="0.777454" stroke-linecap="round" stroke-linejoin="round"/>
<path d="M6.997 6.44176C6.997 6.23557 7.07891 6.03782 7.22471 5.89202C7.37051 5.74622 7.56826 5.66431 7.77445 5.66431C7.98065 5.66431 8.17839 5.74622 8.32419 5.89202C8.47 6.03782 8.55191 6.23557 8.55191 6.44176V8.77412C8.55191 9.5989 8.22427 10.3899 7.64106 10.9731C7.05786 11.5563 6.26686 11.8839 5.44209 11.8839H4.66464C3.5762 11.8839 2.91537 11.5496 2.33616 10.9743L0.936745 9.5749C0.802998 9.42677 0.731336 9.23288 0.736599 9.03338C0.741861 8.83388 0.823643 8.64403 0.965013 8.50316C1.10638 8.36229 1.29651 8.28118 1.49603 8.27663C1.69556 8.27207 1.88919 8.34442 2.03684 8.47869L2.721 9.16285" stroke="white" stroke-width="0.777454" stroke-linecap="round" stroke-linejoin="round"/>
</g>
<defs>
<clipPath id="clip0_71_5572">
<rect width="9.32945" height="15.9933" fill="white"/>
</clipPath>
</defs>
</svg>
