<svg width="20" height="20" viewBox="0 0 20 20" fill="none" xmlns="http://www.w3.org/2000/svg">
<g clip-path="url(#clip0_13_4144)">
<path d="M12.1082 18.0641C12.1398 18.143 12.1948 18.2103 12.2658 18.257C12.3368 18.3037 12.4204 18.3276 12.5054 18.3254C12.5903 18.3232 12.6726 18.2951 12.7411 18.2448C12.8096 18.1946 12.8611 18.1245 12.8887 18.0441L18.3031 2.2174C18.3297 2.14359 18.3348 2.06372 18.3178 1.98712C18.3007 1.91053 18.2621 1.84038 18.2066 1.78489C18.1512 1.7294 18.081 1.69086 18.0044 1.67378C17.9278 1.6567 17.8479 1.66179 17.7741 1.68845L1.9474 7.10286C1.86702 7.13043 1.79699 7.18193 1.74671 7.25044C1.69644 7.31896 1.66833 7.40121 1.66615 7.48617C1.66398 7.57112 1.68784 7.65471 1.73454 7.72571C1.78124 7.79671 1.84854 7.85172 1.92741 7.88337L8.53299 10.5323C8.74181 10.6159 8.93154 10.7409 9.09073 10.8998C9.24993 11.0587 9.37529 11.2482 9.45927 11.4569L12.1082 18.0641Z" stroke="#6B7280" stroke-width="1.66597" stroke-linecap="round" stroke-linejoin="round"/>
<path d="M18.2042 1.78845L9.09131 10.9005" stroke="#6B7280" stroke-width="1.66597" stroke-linecap="round" stroke-linejoin="round"/>
</g>
<defs>
<clipPath id="clip0_13_4144">
<rect width="19.9917" height="19.9917" fill="white"/>
</clipPath>
</defs>
</svg>
