<svg width="24" height="24" viewBox="0 0 24 24" fill="none" xmlns="http://www.w3.org/2000/svg">
<path d="M12.2147 1.99917H11.7749C11.2447 1.99917 10.7362 2.20979 10.3612 2.58471C9.98633 2.95963 9.77571 3.46812 9.77571 3.99834V4.17826C9.77535 4.52884 9.6828 4.87316 9.50736 5.17668C9.33191 5.4802 9.07973 5.73225 8.77612 5.90754L8.3463 6.15744C8.04239 6.3329 7.69765 6.42527 7.34672 6.42527C6.99579 6.42527 6.65105 6.3329 6.34713 6.15744L6.1972 6.07747C5.73845 5.81284 5.19345 5.74105 4.68183 5.87786C4.17021 6.01467 3.73377 6.34889 3.46833 6.80717L3.24843 7.18701C2.9838 7.64575 2.91201 8.19075 3.04882 8.70237C3.18562 9.214 3.51985 9.65043 3.97812 9.91587L4.12806 10.0158C4.43021 10.1903 4.68145 10.4407 4.85681 10.7424C5.03216 11.044 5.12554 11.3862 5.12764 11.7351V12.2449C5.12904 12.5972 5.03733 12.9436 4.8618 13.249C4.68626 13.5544 4.43314 13.808 4.12806 13.9842L3.97812 14.0741C3.51985 14.3396 3.18562 14.776 3.04882 15.2876C2.91201 15.7993 2.9838 16.3443 3.24843 16.803L3.46833 17.1828C3.73377 17.6411 4.17021 17.9753 4.68183 18.1121C5.19345 18.249 5.73845 18.1772 6.1972 17.9125L6.34713 17.8326C6.65105 17.6571 6.99579 17.5647 7.34672 17.5647C7.69765 17.5647 8.04239 17.6571 8.3463 17.8326L8.77612 18.0825C9.07973 18.2578 9.33191 18.5098 9.50736 18.8133C9.6828 19.1168 9.77535 19.4612 9.77571 19.8117V19.9917C9.77571 20.5219 9.98633 21.0304 10.3612 21.4053C10.7362 21.7802 11.2447 21.9908 11.7749 21.9908H12.2147C12.7449 21.9908 13.2534 21.7802 13.6283 21.4053C14.0032 21.0304 14.2139 20.5219 14.2139 19.9917V19.8117C14.2142 19.4612 14.3068 19.1168 14.4822 18.8133C14.6577 18.5098 14.9098 18.2578 15.2134 18.0825L15.6433 17.8326C15.9472 17.6571 16.2919 17.5647 16.6428 17.5647C16.9938 17.5647 17.3385 17.6571 17.6424 17.8326L17.7924 17.9125C18.2511 18.1772 18.7961 18.249 19.3077 18.1121C19.8194 17.9753 20.2558 17.6411 20.5212 17.1828L20.7411 16.793C21.0058 16.3343 21.0776 15.7893 20.9407 15.2776C20.8039 14.766 20.4697 14.3296 20.0114 14.0641L19.8615 13.9842C19.5564 13.808 19.3033 13.5544 19.1278 13.249C18.9522 12.9436 18.8605 12.5972 18.8619 12.2449V11.7451C18.8605 11.3928 18.9522 11.0464 19.1278 10.741C19.3033 10.4356 19.5564 10.182 19.8615 10.0058L20.0114 9.91587C20.4697 9.65043 20.8039 9.214 20.9407 8.70237C21.0776 8.19075 21.0058 7.64575 20.7411 7.18701L20.5212 6.80717C20.2558 6.34889 19.8194 6.01467 19.3077 5.87786C18.7961 5.74105 18.2511 5.81284 17.7924 6.07747L17.6424 6.15744C17.3385 6.3329 16.9938 6.42527 16.6428 6.42527C16.2919 6.42527 15.9472 6.3329 15.6433 6.15744L15.2134 5.90754C14.9098 5.73225 14.6577 5.4802 14.4822 5.17668C14.3068 4.87316 14.2142 4.52884 14.2139 4.17826V3.99834C14.2139 3.46812 14.0032 2.95963 13.6283 2.58471C13.2534 2.20979 12.7449 1.99917 12.2147 1.99917Z" stroke="white" stroke-width="1.99917" stroke-linecap="round" stroke-linejoin="round"/>
<path d="M11.9948 14.9938C13.651 14.9938 14.9936 13.6512 14.9936 11.995C14.9936 10.3388 13.651 8.99625 11.9948 8.99625C10.3387 8.99625 8.99609 10.3388 8.99609 11.995C8.99609 13.6512 10.3387 14.9938 11.9948 14.9938Z" stroke="white" stroke-width="1.99917" stroke-linecap="round" stroke-linejoin="round"/>
</svg>
