<svg width="32" height="32" viewBox="0 0 32 32" fill="none" xmlns="http://www.w3.org/2000/svg">
<path d="M23.9929 10.6634C26.2014 10.6634 27.9917 8.87308 27.9917 6.66462C27.9917 4.45616 26.2014 2.66585 23.9929 2.66585C21.7845 2.66585 19.9941 4.45616 19.9941 6.66462C19.9941 8.87308 21.7845 10.6634 23.9929 10.6634Z" stroke="white" stroke-width="2.66585" stroke-linecap="round" stroke-linejoin="round"/>
<path d="M7.9978 19.9939C10.2063 19.9939 11.9966 18.2036 11.9966 15.9951C11.9966 13.7866 10.2063 11.9963 7.9978 11.9963C5.78934 11.9963 3.99902 13.7866 3.99902 15.9951C3.99902 18.2036 5.78934 19.9939 7.9978 19.9939Z" stroke="white" stroke-width="2.66585" stroke-linecap="round" stroke-linejoin="round"/>
<path d="M23.9929 29.3243C26.2014 29.3243 27.9917 27.534 27.9917 25.3256C27.9917 23.1171 26.2014 21.3268 23.9929 21.3268C21.7845 21.3268 19.9941 23.1171 19.9941 25.3256C19.9941 27.534 21.7845 29.3243 23.9929 29.3243Z" stroke="white" stroke-width="2.66585" stroke-linecap="round" stroke-linejoin="round"/>
<path d="M11.4502 18.0078L20.5541 23.3129" stroke="white" stroke-width="2.66585" stroke-linecap="round" stroke-linejoin="round"/>
<path d="M20.5407 8.67734L11.4502 13.9824" stroke="white" stroke-width="2.66585" stroke-linecap="round" stroke-linejoin="round"/>
</svg>
