<svg width="16" height="16" viewBox="0 0 16 16" fill="none" xmlns="http://www.w3.org/2000/svg">
<path d="M2.56555 5.74427C2.46828 5.30614 2.48322 4.85054 2.60897 4.41972C2.73472 3.9889 2.96721 3.5968 3.28489 3.27978C3.60257 2.96277 3.99516 2.73109 4.42624 2.60624C4.85733 2.4814 5.31296 2.46742 5.75089 2.5656C5.99192 2.18862 6.32398 1.87839 6.71645 1.6635C7.10892 1.44861 7.54917 1.33597 7.99662 1.33597C8.44407 1.33597 8.88431 1.44861 9.27678 1.6635C9.66925 1.87839 10.0013 2.18862 10.2423 2.5656C10.6809 2.46699 11.1374 2.48091 11.5691 2.60606C12.0009 2.73121 12.394 2.96353 12.7119 3.2814C13.0298 3.59928 13.2621 3.99239 13.3872 4.42416C13.5124 4.85593 13.5263 5.31234 13.4277 5.75094C13.8047 5.99198 14.1149 6.32404 14.3298 6.7165C14.5447 7.10897 14.6573 7.54922 14.6573 7.99667C14.6573 8.44412 14.5447 8.88437 14.3298 9.27684C14.1149 9.6693 13.8047 10.0014 13.4277 10.2424C13.5259 10.6803 13.5119 11.136 13.387 11.567C13.2622 11.9981 13.0305 12.3907 12.7135 12.7084C12.3965 13.0261 12.0044 13.2586 11.5736 13.3843C11.1427 13.5101 10.6871 13.525 10.249 13.4277C10.0083 13.8062 9.67597 14.1177 9.28283 14.3336C8.88969 14.5494 8.44845 14.6626 7.99995 14.6626C7.55145 14.6626 7.1102 14.5494 6.71707 14.3336C6.32393 14.1177 5.99161 13.8062 5.75089 13.4277C5.31296 13.5259 4.85733 13.5119 4.42624 13.3871C3.99516 13.2622 3.60257 13.0306 3.28489 12.7136C2.96721 12.3965 2.73472 12.0044 2.60897 11.5736C2.48322 11.1428 2.46828 10.6872 2.56555 10.2491C2.18568 10.0087 1.87278 9.67609 1.65596 9.28228C1.43914 8.88847 1.32544 8.44622 1.32544 7.99667C1.32544 7.54712 1.43914 7.10487 1.65596 6.71106C1.87278 6.31725 2.18568 5.98468 2.56555 5.74427Z" stroke="#1E3A5F" stroke-width="1.33278" stroke-linecap="round" stroke-linejoin="round"/>
<path d="M5.99756 7.99666L7.33034 9.32944L9.99589 6.66388" stroke="#1E3A5F" stroke-width="1.33278" stroke-linecap="round" stroke-linejoin="round"/>
</svg>
