<svg width="24" height="24" viewBox="0 0 24 24" fill="none" xmlns="http://www.w3.org/2000/svg">
<path d="M21.72 17.9914L13.7238 3.99809C13.5495 3.69044 13.2966 3.43455 12.9911 3.25652C12.6856 3.07848 12.3383 2.98468 11.9847 2.98468C11.631 2.98468 11.2838 3.07848 10.9782 3.25652C10.6727 3.43455 10.4198 3.69044 10.2455 3.99809L2.24931 17.9914C2.07308 18.2966 1.98067 18.643 1.98145 18.9954C1.98223 19.3479 2.07617 19.6938 2.25376 19.9983C2.43134 20.3027 2.68625 20.5548 2.99265 20.7289C3.29905 20.9031 3.64605 20.9931 3.99848 20.99H19.9908C20.3416 20.9896 20.686 20.897 20.9896 20.7214C21.2933 20.5458 21.5453 20.2934 21.7205 19.9896C21.8957 19.6857 21.9879 19.3412 21.9878 18.9904C21.9877 18.6397 21.8954 18.2952 21.72 17.9914Z" stroke="#1E3A5F" stroke-width="1.99905" stroke-linecap="round" stroke-linejoin="round"/>
<path d="M11.9941 8.99573V12.9938" stroke="#1E3A5F" stroke-width="1.99905" stroke-linecap="round" stroke-linejoin="round"/>
<path d="M11.9941 16.9919H12.0041" stroke="#1E3A5F" stroke-width="1.99905" stroke-linecap="round" stroke-linejoin="round"/>
</svg>
